<svg xmlns="http://www.w3.org/2000/svg" viewBox="6.5 7 50 50" width="480" height="480"><defs><radialGradient id="gbubbleMatteWave" cx="35%" cy="30%" r="80%"><stop offset="0" stop-color="#3B4453"/><stop offset="1" stop-color="#141A26"/></radialGradient></defs><path d="M32,9 C45.5,9 55.5,18.5 55.5,31 C55.5,43.5 45.5,53 32,53 C28.5,53 25.3,52.4 22.4,51.2 L12.5,55.5 L14.6,46 C10.8,42 8.5,36.8 8.5,31 C8.5,18.5 18.5,9 32,9 Z" fill="url(#gbubbleMatteWave)"/><line x1="19.10" y1="29.46" x2="19.10" y2="32.54" stroke="#DCE3EE" stroke-width="2.6" stroke-linecap="round"/><line x1="23.40" y1="29.46" x2="23.40" y2="32.54" stroke="#DCE3EE" stroke-width="2.6" stroke-linecap="round"/><line x1="27.70" y1="29.46" x2="27.70" y2="32.54" stroke="#DCE3EE" stroke-width="2.6" stroke-linecap="round"/><line x1="32.00" y1="29.46" x2="32.00" y2="32.54" stroke="#DCE3EE" stroke-width="2.6" stroke-linecap="round"/><line x1="36.30" y1="29.46" x2="36.30" y2="32.54" stroke="#DCE3EE" stroke-width="2.6" stroke-linecap="round"/><line x1="40.60" y1="29.46" x2="40.60" y2="32.54" stroke="#DCE3EE" stroke-width="2.6" stroke-linecap="round"/><line x1="44.90" y1="29.46" x2="44.90" y2="32.54" stroke="#DCE3EE" stroke-width="2.6" stroke-linecap="round"/></svg>