<svg xmlns="http://www.w3.org/2000/svg" viewBox="6.5 7 50 50" width="480" height="480"><defs><linearGradient id="tbubbleWave" x1="0" y1="0" x2="0" y2="1"><stop offset="0" stop-color="#F6F7FA"/><stop offset="1" stop-color="#E3E7EE"/></linearGradient><radialGradient id="abubbleWave" cx="35%" cy="30%" r="80%"><stop offset="0" stop-color="#3B4453"/><stop offset="1" stop-color="#0E1320"/></radialGradient><linearGradient id="bbubbleWave" x1="0" y1="0" x2="0.3" y2="1"><stop offset="0" stop-color="#000"/><stop offset="0.55" stop-color="#000"/><stop offset="1" stop-color="#000"/></linearGradient><linearGradient id="ibubbleWave" x1="0" y1="0" x2="1" y2="0"><stop offset="0" stop-color="#FF9FC0"/><stop offset="0.3" stop-color="#FFD27A"/><stop offset="0.55" stop-color="#FFFFFF"/><stop offset="0.8" stop-color="#7FE3FF"/><stop offset="1" stop-color="#B9A2FF"/></linearGradient><radialGradient id="vbubbleWave" cx="50%" cy="50%" r="50%"><stop offset=".72" stop-color="#000" stop-opacity="0"/><stop offset="1" stop-color="#000" stop-opacity=".38"/></radialGradient><linearGradient id="rbubbleWave" x1="0" y1="0" x2="1" y2="1"><stop offset="0" stop-color="#fff" stop-opacity=".9"/><stop offset=".45" stop-color="#fff" stop-opacity=".05"/><stop offset="1" stop-color="#fff" stop-opacity=".55"/></linearGradient><filter id="fbubbleWave" filterUnits="userSpaceOnUse" x="-8" y="-8" width="80" height="80"><feGaussianBlur stdDeviation="1.6"/></filter><filter id="sbubbleWave" filterUnits="userSpaceOnUse" x="-8" y="-8" width="80" height="80"><feGaussianBlur stdDeviation=".35"/></filter><filter id="dbubbleWave" filterUnits="userSpaceOnUse" x="-8" y="-8" width="80" height="80"><feGaussianBlur stdDeviation="2.4"/></filter><clipPath id="cbubbleWave"><path d="M32,9 C45.5,9 55.5,18.5 55.5,31 C55.5,43.5 45.5,53 32,53 C28.5,53 25.3,52.4 22.4,51.2 L12.5,55.5 L14.6,46 C10.8,42 8.5,36.8 8.5,31 C8.5,18.5 18.5,9 32,9 Z"/></clipPath></defs><path d="M32,9 C45.5,9 55.5,18.5 55.5,31 C55.5,43.5 45.5,53 32,53 C28.5,53 25.3,52.4 22.4,51.2 L12.5,55.5 L14.6,46 C10.8,42 8.5,36.8 8.5,31 C8.5,18.5 18.5,9 32,9 Z" transform="translate(0 2.2)" fill="#0A1224" opacity="0" filter="url(#dbubbleWave)"/><g clip-path="url(#cbubbleWave)"><rect width="64" height="64" fill="url(#abubbleWave)"/><line x1="19.10" y1="29.46" x2="19.10" y2="32.54" stroke="#DCE3EE" stroke-width="2.6" stroke-linecap="round"/><line x1="23.40" y1="29.46" x2="23.40" y2="32.54" stroke="#DCE3EE" stroke-width="2.6" stroke-linecap="round"/><line x1="27.70" y1="29.46" x2="27.70" y2="32.54" stroke="#DCE3EE" stroke-width="2.6" stroke-linecap="round"/><line x1="32.00" y1="29.46" x2="32.00" y2="32.54" stroke="#DCE3EE" stroke-width="2.6" stroke-linecap="round"/><line x1="36.30" y1="29.46" x2="36.30" y2="32.54" stroke="#DCE3EE" stroke-width="2.6" stroke-linecap="round"/><line x1="40.60" y1="29.46" x2="40.60" y2="32.54" stroke="#DCE3EE" stroke-width="2.6" stroke-linecap="round"/><line x1="44.90" y1="29.46" x2="44.90" y2="32.54" stroke="#DCE3EE" stroke-width="2.6" stroke-linecap="round"/><path d="M4,80 L60,80 L60,62 L4,62 L4,80 Z" fill="url(#bbubbleWave)"/><path d="M4,80 L60,80" fill="none" stroke="#B9CBE6" stroke-width="4" opacity=".55" filter="url(#fbubbleWave)"/><path d="M4,80 L60,80" fill="none" stroke="url(#ibubbleWave)" stroke-width="1.5" filter="url(#sbubbleWave)"/><path d="M4,80 L60,80" fill="none" stroke="#fff" stroke-width=".45" opacity=".9"/><rect width="64" height="64" fill="url(#vbubbleWave)"/><ellipse cx="24" cy="15.5" rx="8" ry="3.2" transform="rotate(-24 24 15.5)" fill="#fff" opacity="0.14" filter="url(#fbubbleWave)"/></g><path d="M32,9 C45.5,9 55.5,18.5 55.5,31 C55.5,43.5 45.5,53 32,53 C28.5,53 25.3,52.4 22.4,51.2 L12.5,55.5 L14.6,46 C10.8,42 8.5,36.8 8.5,31 C8.5,18.5 18.5,9 32,9 Z" fill="none" stroke="#0E1320" stroke-width="0.8" opacity="0.35"/><path d="M32,9 C45.5,9 55.5,18.5 55.5,31 C55.5,43.5 45.5,53 32,53 C28.5,53 25.3,52.4 22.4,51.2 L12.5,55.5 L14.6,46 C10.8,42 8.5,36.8 8.5,31 C8.5,18.5 18.5,9 32,9 Z" fill="none" stroke="url(#rbubbleWave)" stroke-width=".9"/></svg>