<svg xmlns="http://www.w3.org/2000/svg" viewBox="8 8 48 48" width="480" height="480"><defs><linearGradient id="tglass" x1="0" y1="0" x2="0" y2="1"><stop offset="0" stop-color="#F6F7FA"/><stop offset="1" stop-color="#E3E7EE"/></linearGradient><radialGradient id="aglass" cx="35%" cy="30%" r="80%"><stop offset="0" stop-color="#3B4453"/><stop offset="1" stop-color="#0E1320"/></radialGradient><linearGradient id="bglass" x1="0" y1="0" x2="0.3" y2="1"><stop offset="0" stop-color="#000"/><stop offset="0.55" stop-color="#000"/><stop offset="1" stop-color="#000"/></linearGradient><linearGradient id="iglass" x1="0" y1="0" x2="1" y2="0"><stop offset="0" stop-color="#FF9FC0"/><stop offset="0.3" stop-color="#FFD27A"/><stop offset="0.55" stop-color="#FFFFFF"/><stop offset="0.8" stop-color="#7FE3FF"/><stop offset="1" stop-color="#B9A2FF"/></linearGradient><radialGradient id="vglass" cx="50%" cy="50%" r="50%"><stop offset=".72" stop-color="#000" stop-opacity="0"/><stop offset="1" stop-color="#000" stop-opacity=".38"/></radialGradient><linearGradient id="rglass" x1="0" y1="0" x2="1" y2="1"><stop offset="0" stop-color="#fff" stop-opacity=".9"/><stop offset=".45" stop-color="#fff" stop-opacity=".05"/><stop offset="1" stop-color="#fff" stop-opacity=".55"/></linearGradient><filter id="fglass" filterUnits="userSpaceOnUse" x="-8" y="-8" width="80" height="80"><feGaussianBlur stdDeviation="1.6"/></filter><filter id="sglass" filterUnits="userSpaceOnUse" x="-8" y="-8" width="80" height="80"><feGaussianBlur stdDeviation=".35"/></filter><filter id="dglass" filterUnits="userSpaceOnUse" x="-8" y="-8" width="80" height="80"><feGaussianBlur stdDeviation="2.4"/></filter><clipPath id="cglass"><path d="M9,32 A23,23 0 1 1 55,32 A23,23 0 1 1 9,32 Z"/></clipPath></defs><path d="M9,32 A23,23 0 1 1 55,32 A23,23 0 1 1 9,32 Z" transform="translate(0 2.2)" fill="#0A1224" opacity="0" filter="url(#dglass)"/><g clip-path="url(#cglass)"><rect width="64" height="64" fill="url(#aglass)"/><text x="19" y="41" font-family="-apple-system, 'SF Pro Display', 'Helvetica Neue', sans-serif" font-weight="800" font-size="29" fill="#E4E9F1" opacity="0.95">r</text><path d="M39.8,14.899999999999999 Q39.8,21.2 46.099999999999994,21.2 Q39.8,21.2 39.8,27.5 Q39.8,21.2 33.5,21.2 Q39.8,21.2 39.8,14.899999999999999 Z" fill="#E8B04B" opacity="1"/><path d="M4,80 L60,80 L60,62 L4,62 L4,80 Z" fill="url(#bglass)"/><path d="M4,80 L60,80" fill="none" stroke="#B9CBE6" stroke-width="4" opacity=".55" filter="url(#fglass)"/><path d="M4,80 L60,80" fill="none" stroke="url(#iglass)" stroke-width="1.5" filter="url(#sglass)"/><path d="M4,80 L60,80" fill="none" stroke="#fff" stroke-width=".45" opacity=".9"/><rect width="64" height="64" fill="url(#vglass)"/><ellipse cx="24" cy="15.5" rx="8" ry="3.2" transform="rotate(-24 24 15.5)" fill="#fff" opacity="0.35" filter="url(#fglass)"/></g><path d="M9,32 A23,23 0 1 1 55,32 A23,23 0 1 1 9,32 Z" fill="none" stroke="#0E1320" stroke-width="0.8" opacity="0.35"/><path d="M9,32 A23,23 0 1 1 55,32 A23,23 0 1 1 9,32 Z" fill="none" stroke="url(#rglass)" stroke-width=".9"/><path d="M9.7,36 A22.3,22.3 0 0 1 14.5,19" fill="none" stroke="#7FE3FF" stroke-width=".9" opacity=".7" filter="url(#sglass)"/><path d="M10.1,41 A21.9,21.9 0 0 1 9.9,34" fill="none" stroke="#FFB070" stroke-width=".7" opacity=".3" filter="url(#sglass)"/></svg>